<mxfile host="app.diagrams.net" modified="2024-06-08T20:13:15.090Z" agent="Mozilla/5.0 (Macintosh; Intel Mac OS X 10.15; rv:126.0) Gecko/20100101 Firefox/126.0" etag="ou5Pi1FH-GcAtZADhdnS" version="24.4.13" type="device">
  <diagram name="Page-1" id="HmzdqBupNJvBoyo58CJL">
    <mxGraphModel dx="2284" dy="1838" grid="1" gridSize="10" guides="1" tooltips="1" connect="1" arrows="1" fold="1" page="1" pageScale="1" pageWidth="850" pageHeight="1100" math="0" shadow="0">
      <root>
        <mxCell id="0" />
        <mxCell id="1" parent="0" />
        <mxCell id="aOvOmwiqrQyPlh8_4ygN-1" value="Personaje" style="swimlane;fontStyle=1;align=center;verticalAlign=top;childLayout=stackLayout;horizontal=1;startSize=26;horizontalStack=0;resizeParent=1;resizeParentMax=0;resizeLast=0;collapsible=1;marginBottom=0;whiteSpace=wrap;html=1;" vertex="1" parent="1">
          <mxGeometry x="170" y="80" width="540" height="170" as="geometry" />
        </mxCell>
        <mxCell id="aOvOmwiqrQyPlh8_4ygN-2" value="&lt;div&gt;- nombre: String&lt;/div&gt;&lt;div&gt;&lt;br&gt;&lt;/div&gt;&lt;div&gt;- puntosDeVida: Integer&lt;br&gt;&lt;/div&gt;" style="text;strokeColor=none;fillColor=none;align=left;verticalAlign=top;spacingLeft=4;spacingRight=4;overflow=hidden;rotatable=0;points=[[0,0.5],[1,0.5]];portConstraint=eastwest;whiteSpace=wrap;html=1;" vertex="1" parent="aOvOmwiqrQyPlh8_4ygN-1">
          <mxGeometry y="26" width="540" height="54" as="geometry" />
        </mxCell>
        <mxCell id="aOvOmwiqrQyPlh8_4ygN-3" value="" style="line;strokeWidth=1;fillColor=none;align=left;verticalAlign=middle;spacingTop=-1;spacingLeft=3;spacingRight=3;rotatable=0;labelPosition=right;points=[];portConstraint=eastwest;strokeColor=inherit;" vertex="1" parent="aOvOmwiqrQyPlh8_4ygN-1">
          <mxGeometry y="80" width="540" height="8" as="geometry" />
        </mxCell>
        <mxCell id="aOvOmwiqrQyPlh8_4ygN-4" value="&lt;div&gt;+ &amp;lt;&amp;lt;create&amp;gt;&amp;gt; createPersonaje(arma: Arma, habilidad: Habilidad, armadura: Armadura): Personaje&lt;/div&gt;&lt;div&gt;&lt;br&gt;&lt;/div&gt;&lt;div&gt;+ atacarA(personaje: Personaje)&lt;br&gt;&lt;/div&gt;&lt;div&gt;&lt;br&gt;&lt;/div&gt;&lt;div&gt;- reducirPuntosDeVidaPor(cantidadDePuntos: Integer)&lt;br&gt;&lt;/div&gt;" style="text;strokeColor=none;fillColor=none;align=left;verticalAlign=top;spacingLeft=4;spacingRight=4;overflow=hidden;rotatable=0;points=[[0,0.5],[1,0.5]];portConstraint=eastwest;whiteSpace=wrap;html=1;" vertex="1" parent="aOvOmwiqrQyPlh8_4ygN-1">
          <mxGeometry y="88" width="540" height="82" as="geometry" />
        </mxCell>
        <mxCell id="aOvOmwiqrQyPlh8_4ygN-5" value="&amp;lt;&amp;lt;interface&amp;gt;&amp;gt;&lt;div&gt;ArmaduraTemplate&lt;br&gt;&lt;/div&gt;" style="swimlane;fontStyle=1;align=center;verticalAlign=top;childLayout=stackLayout;horizontal=1;startSize=40;horizontalStack=0;resizeParent=1;resizeParentMax=0;resizeLast=0;collapsible=1;marginBottom=0;whiteSpace=wrap;html=1;" vertex="1" parent="1">
          <mxGeometry x="300" y="380" width="280" height="130" as="geometry" />
        </mxCell>
        <mxCell id="aOvOmwiqrQyPlh8_4ygN-7" value="" style="line;strokeWidth=1;fillColor=none;align=left;verticalAlign=middle;spacingTop=-1;spacingLeft=3;spacingRight=3;rotatable=0;labelPosition=right;points=[];portConstraint=eastwest;strokeColor=inherit;" vertex="1" parent="aOvOmwiqrQyPlh8_4ygN-5">
          <mxGeometry y="40" width="280" height="8" as="geometry" />
        </mxCell>
        <mxCell id="aOvOmwiqrQyPlh8_4ygN-8" value="+ calcularDanioDeArma(espada: Espada): Integer&lt;div&gt;&lt;br&gt;&lt;/div&gt;&lt;div&gt;+ calcularDanioDeArma(arco: Arco): Integer&lt;/div&gt;&lt;div&gt;&lt;br&gt;&lt;/div&gt;&lt;div&gt;+ calcularDanioDeArma(baston: Baston): Integer&lt;/div&gt;" style="text;strokeColor=none;fillColor=none;align=left;verticalAlign=top;spacingLeft=4;spacingRight=4;overflow=hidden;rotatable=0;points=[[0,0.5],[1,0.5]];portConstraint=eastwest;whiteSpace=wrap;html=1;" vertex="1" parent="aOvOmwiqrQyPlh8_4ygN-5">
          <mxGeometry y="48" width="280" height="82" as="geometry" />
        </mxCell>
        <mxCell id="aOvOmwiqrQyPlh8_4ygN-9" value="&amp;lt;&amp;lt;abstract&amp;gt;&amp;gt;&lt;br&gt;&lt;div&gt;Arma&lt;/div&gt;" style="swimlane;fontStyle=1;align=center;verticalAlign=top;childLayout=stackLayout;horizontal=1;startSize=40;horizontalStack=0;resizeParent=1;resizeParentMax=0;resizeLast=0;collapsible=1;marginBottom=0;whiteSpace=wrap;html=1;" vertex="1" parent="1">
          <mxGeometry x="-295" y="168" width="370" height="74" as="geometry" />
        </mxCell>
        <mxCell id="aOvOmwiqrQyPlh8_4ygN-11" value="" style="line;strokeWidth=1;fillColor=none;align=left;verticalAlign=middle;spacingTop=-1;spacingLeft=3;spacingRight=3;rotatable=0;labelPosition=right;points=[];portConstraint=eastwest;strokeColor=inherit;" vertex="1" parent="aOvOmwiqrQyPlh8_4ygN-9">
          <mxGeometry y="40" width="370" height="8" as="geometry" />
        </mxCell>
        <mxCell id="aOvOmwiqrQyPlh8_4ygN-12" value="+ obtenerDanioAArmadura(armadura: ArmaduraTemplate): Integer" style="text;strokeColor=none;fillColor=none;align=left;verticalAlign=top;spacingLeft=4;spacingRight=4;overflow=hidden;rotatable=0;points=[[0,0.5],[1,0.5]];portConstraint=eastwest;whiteSpace=wrap;html=1;" vertex="1" parent="aOvOmwiqrQyPlh8_4ygN-9">
          <mxGeometry y="48" width="370" height="26" as="geometry" />
        </mxCell>
        <mxCell id="aOvOmwiqrQyPlh8_4ygN-13" value="&amp;lt;&amp;lt;interface&amp;gt;&amp;gt;&lt;div&gt;Habilidad&lt;/div&gt;" style="swimlane;fontStyle=1;align=center;verticalAlign=top;childLayout=stackLayout;horizontal=1;startSize=40;horizontalStack=0;resizeParent=1;resizeParentMax=0;resizeLast=0;collapsible=1;marginBottom=0;whiteSpace=wrap;html=1;" vertex="1" parent="1">
          <mxGeometry x="900" y="159" width="160" height="48" as="geometry" />
        </mxCell>
        <mxCell id="aOvOmwiqrQyPlh8_4ygN-15" value="" style="line;strokeWidth=1;fillColor=none;align=left;verticalAlign=middle;spacingTop=-1;spacingLeft=3;spacingRight=3;rotatable=0;labelPosition=right;points=[];portConstraint=eastwest;strokeColor=inherit;" vertex="1" parent="aOvOmwiqrQyPlh8_4ygN-13">
          <mxGeometry y="40" width="160" height="8" as="geometry" />
        </mxCell>
        <mxCell id="aOvOmwiqrQyPlh8_4ygN-20" value="" style="endArrow=open;endFill=1;endSize=12;html=1;rounded=0;exitX=0;exitY=0.5;exitDx=0;exitDy=0;entryX=1;entryY=0.5;entryDx=0;entryDy=0;" edge="1" parent="1" source="aOvOmwiqrQyPlh8_4ygN-4" target="aOvOmwiqrQyPlh8_4ygN-9">
          <mxGeometry width="160" relative="1" as="geometry">
            <mxPoint x="130" y="100" as="sourcePoint" />
            <mxPoint x="90" y="230" as="targetPoint" />
          </mxGeometry>
        </mxCell>
        <mxCell id="aOvOmwiqrQyPlh8_4ygN-21" value="arma" style="edgeLabel;html=1;align=center;verticalAlign=middle;resizable=0;points=[];" vertex="1" connectable="0" parent="aOvOmwiqrQyPlh8_4ygN-20">
          <mxGeometry y="1" relative="1" as="geometry">
            <mxPoint as="offset" />
          </mxGeometry>
        </mxCell>
        <mxCell id="aOvOmwiqrQyPlh8_4ygN-22" value="" style="endArrow=open;endFill=1;endSize=12;html=1;rounded=0;exitX=0.5;exitY=1;exitDx=0;exitDy=0;entryX=0.5;entryY=0;entryDx=0;entryDy=0;" edge="1" parent="1" source="aOvOmwiqrQyPlh8_4ygN-1" target="aOvOmwiqrQyPlh8_4ygN-5">
          <mxGeometry width="160" relative="1" as="geometry">
            <mxPoint x="340" y="380" as="sourcePoint" />
            <mxPoint x="500" y="380" as="targetPoint" />
          </mxGeometry>
        </mxCell>
        <mxCell id="aOvOmwiqrQyPlh8_4ygN-23" value="armadura" style="edgeLabel;html=1;align=center;verticalAlign=middle;resizable=0;points=[];" vertex="1" connectable="0" parent="aOvOmwiqrQyPlh8_4ygN-22">
          <mxGeometry y="1" relative="1" as="geometry">
            <mxPoint as="offset" />
          </mxGeometry>
        </mxCell>
        <mxCell id="aOvOmwiqrQyPlh8_4ygN-26" value="&lt;b&gt;&amp;lt;&amp;lt;interface&amp;gt;&amp;gt;&lt;br&gt;&lt;/b&gt;&lt;div&gt;&lt;b&gt;PersonajeFactory&lt;/b&gt;&lt;/div&gt;" style="swimlane;fontStyle=0;childLayout=stackLayout;horizontal=1;startSize=40;fillColor=none;horizontalStack=0;resizeParent=1;resizeParentMax=0;resizeLast=0;collapsible=1;marginBottom=0;whiteSpace=wrap;html=1;" vertex="1" parent="1">
          <mxGeometry x="350" y="-320" width="180" height="66" as="geometry" />
        </mxCell>
        <mxCell id="aOvOmwiqrQyPlh8_4ygN-27" value="+ crearPersonaje(): Personaje" style="text;strokeColor=none;fillColor=none;align=left;verticalAlign=top;spacingLeft=4;spacingRight=4;overflow=hidden;rotatable=0;points=[[0,0.5],[1,0.5]];portConstraint=eastwest;whiteSpace=wrap;html=1;" vertex="1" parent="aOvOmwiqrQyPlh8_4ygN-26">
          <mxGeometry y="40" width="180" height="26" as="geometry" />
        </mxCell>
        <mxCell id="aOvOmwiqrQyPlh8_4ygN-30" value="&lt;b&gt;GuerreroFactory&lt;/b&gt;" style="swimlane;fontStyle=0;childLayout=stackLayout;horizontal=1;startSize=30;fillColor=none;horizontalStack=0;resizeParent=1;resizeParentMax=0;resizeLast=0;collapsible=1;marginBottom=0;whiteSpace=wrap;html=1;" vertex="1" parent="1">
          <mxGeometry x="130" y="-160" width="180" height="56" as="geometry" />
        </mxCell>
        <mxCell id="aOvOmwiqrQyPlh8_4ygN-31" value="+ crearPersonaje(): Personaje" style="text;strokeColor=none;fillColor=none;align=left;verticalAlign=top;spacingLeft=4;spacingRight=4;overflow=hidden;rotatable=0;points=[[0,0.5],[1,0.5]];portConstraint=eastwest;whiteSpace=wrap;html=1;" vertex="1" parent="aOvOmwiqrQyPlh8_4ygN-30">
          <mxGeometry y="30" width="180" height="26" as="geometry" />
        </mxCell>
        <mxCell id="aOvOmwiqrQyPlh8_4ygN-32" value="&lt;b&gt;ArqueroFactory&lt;br&gt;&lt;/b&gt;" style="swimlane;fontStyle=0;childLayout=stackLayout;horizontal=1;startSize=30;fillColor=none;horizontalStack=0;resizeParent=1;resizeParentMax=0;resizeLast=0;collapsible=1;marginBottom=0;whiteSpace=wrap;html=1;" vertex="1" parent="1">
          <mxGeometry x="350" y="-160" width="180" height="56" as="geometry" />
        </mxCell>
        <mxCell id="aOvOmwiqrQyPlh8_4ygN-33" value="+ crearPersonaje(): Personaje" style="text;strokeColor=none;fillColor=none;align=left;verticalAlign=top;spacingLeft=4;spacingRight=4;overflow=hidden;rotatable=0;points=[[0,0.5],[1,0.5]];portConstraint=eastwest;whiteSpace=wrap;html=1;" vertex="1" parent="aOvOmwiqrQyPlh8_4ygN-32">
          <mxGeometry y="30" width="180" height="26" as="geometry" />
        </mxCell>
        <mxCell id="aOvOmwiqrQyPlh8_4ygN-34" value="&lt;b&gt;MagoFactory&lt;br&gt;&lt;/b&gt;" style="swimlane;fontStyle=0;childLayout=stackLayout;horizontal=1;startSize=30;fillColor=none;horizontalStack=0;resizeParent=1;resizeParentMax=0;resizeLast=0;collapsible=1;marginBottom=0;whiteSpace=wrap;html=1;" vertex="1" parent="1">
          <mxGeometry x="570" y="-160" width="180" height="56" as="geometry" />
        </mxCell>
        <mxCell id="aOvOmwiqrQyPlh8_4ygN-35" value="+ crearPersonaje(): Personaje" style="text;strokeColor=none;fillColor=none;align=left;verticalAlign=top;spacingLeft=4;spacingRight=4;overflow=hidden;rotatable=0;points=[[0,0.5],[1,0.5]];portConstraint=eastwest;whiteSpace=wrap;html=1;" vertex="1" parent="aOvOmwiqrQyPlh8_4ygN-34">
          <mxGeometry y="30" width="180" height="26" as="geometry" />
        </mxCell>
        <mxCell id="aOvOmwiqrQyPlh8_4ygN-36" value="" style="endArrow=block;dashed=1;endFill=0;endSize=12;html=1;rounded=0;exitX=0.5;exitY=0;exitDx=0;exitDy=0;entryX=0;entryY=1;entryDx=0;entryDy=0;" edge="1" parent="1" source="aOvOmwiqrQyPlh8_4ygN-30" target="aOvOmwiqrQyPlh8_4ygN-26">
          <mxGeometry width="160" relative="1" as="geometry">
            <mxPoint x="320" y="-20" as="sourcePoint" />
            <mxPoint x="480" y="-20" as="targetPoint" />
          </mxGeometry>
        </mxCell>
        <mxCell id="aOvOmwiqrQyPlh8_4ygN-37" value="" style="endArrow=block;dashed=1;endFill=0;endSize=12;html=1;rounded=0;exitX=0.5;exitY=0;exitDx=0;exitDy=0;entryX=0.5;entryY=1;entryDx=0;entryDy=0;" edge="1" parent="1" source="aOvOmwiqrQyPlh8_4ygN-32" target="aOvOmwiqrQyPlh8_4ygN-26">
          <mxGeometry width="160" relative="1" as="geometry">
            <mxPoint x="320" y="-20" as="sourcePoint" />
            <mxPoint x="480" y="-20" as="targetPoint" />
          </mxGeometry>
        </mxCell>
        <mxCell id="aOvOmwiqrQyPlh8_4ygN-38" value="" style="endArrow=block;dashed=1;endFill=0;endSize=12;html=1;rounded=0;exitX=0.5;exitY=0;exitDx=0;exitDy=0;entryX=1;entryY=1;entryDx=0;entryDy=0;" edge="1" parent="1" source="aOvOmwiqrQyPlh8_4ygN-34" target="aOvOmwiqrQyPlh8_4ygN-26">
          <mxGeometry width="160" relative="1" as="geometry">
            <mxPoint x="320" y="-20" as="sourcePoint" />
            <mxPoint x="480" y="-20" as="targetPoint" />
          </mxGeometry>
        </mxCell>
        <mxCell id="aOvOmwiqrQyPlh8_4ygN-39" value="&amp;lt;&amp;lt;creates&amp;gt;&amp;gt;" style="html=1;verticalAlign=bottom;endArrow=open;dashed=1;endSize=8;curved=0;rounded=0;exitX=0.75;exitY=1;exitDx=0;exitDy=0;" edge="1" parent="1" source="aOvOmwiqrQyPlh8_4ygN-30">
          <mxGeometry relative="1" as="geometry">
            <mxPoint x="160" y="-20" as="sourcePoint" />
            <mxPoint x="305" y="80" as="targetPoint" />
          </mxGeometry>
        </mxCell>
        <mxCell id="aOvOmwiqrQyPlh8_4ygN-40" value="&amp;lt;&amp;lt;creates&amp;gt;&amp;gt;" style="html=1;verticalAlign=bottom;endArrow=open;dashed=1;endSize=8;curved=0;rounded=0;exitX=0.5;exitY=1;exitDx=0;exitDy=0;entryX=0.5;entryY=0;entryDx=0;entryDy=0;" edge="1" parent="1" source="aOvOmwiqrQyPlh8_4ygN-32" target="aOvOmwiqrQyPlh8_4ygN-1">
          <mxGeometry relative="1" as="geometry">
            <mxPoint x="230" y="-94" as="sourcePoint" />
            <mxPoint x="315" y="90" as="targetPoint" />
          </mxGeometry>
        </mxCell>
        <mxCell id="aOvOmwiqrQyPlh8_4ygN-41" value="&amp;lt;&amp;lt;creates&amp;gt;&amp;gt;" style="html=1;verticalAlign=bottom;endArrow=open;dashed=1;endSize=8;curved=0;rounded=0;exitX=0.25;exitY=1;exitDx=0;exitDy=0;entryX=0.75;entryY=0;entryDx=0;entryDy=0;" edge="1" parent="1" source="aOvOmwiqrQyPlh8_4ygN-34" target="aOvOmwiqrQyPlh8_4ygN-1">
          <mxGeometry relative="1" as="geometry">
            <mxPoint x="240" y="-84" as="sourcePoint" />
            <mxPoint x="325" y="100" as="targetPoint" />
          </mxGeometry>
        </mxCell>
        <mxCell id="aOvOmwiqrQyPlh8_4ygN-44" value="ArmaduraDeAcero" style="swimlane;fontStyle=1;align=center;verticalAlign=top;childLayout=stackLayout;horizontal=1;startSize=30;horizontalStack=0;resizeParent=1;resizeParentMax=0;resizeLast=0;collapsible=1;marginBottom=0;whiteSpace=wrap;html=1;" vertex="1" parent="1">
          <mxGeometry x="-110" y="610" width="340" height="150" as="geometry" />
        </mxCell>
        <mxCell id="aOvOmwiqrQyPlh8_4ygN-45" value="" style="line;strokeWidth=1;fillColor=none;align=left;verticalAlign=middle;spacingTop=-1;spacingLeft=3;spacingRight=3;rotatable=0;labelPosition=right;points=[];portConstraint=eastwest;strokeColor=inherit;" vertex="1" parent="aOvOmwiqrQyPlh8_4ygN-44">
          <mxGeometry y="30" width="340" height="8" as="geometry" />
        </mxCell>
        <mxCell id="aOvOmwiqrQyPlh8_4ygN-46" value="+ &amp;lt;&amp;lt;create&amp;gt;&amp;gt; createArmaduraDeAcero(): ArmaduraDeAcero&lt;br&gt;&lt;div&gt;&lt;br&gt;&lt;/div&gt;&lt;div&gt;+ calcularDanioDeArma(espada: Espada): Integer&lt;/div&gt;&lt;div&gt;&lt;br&gt;&lt;/div&gt;&lt;div&gt;+ calcularDanioDeArma(arco: Arco): Integer&lt;/div&gt;&lt;div&gt;&lt;br&gt;&lt;/div&gt;&lt;div&gt;+ calcularDanioDeArma(baston: Baston): Integer&lt;/div&gt;" style="text;strokeColor=none;fillColor=none;align=left;verticalAlign=top;spacingLeft=4;spacingRight=4;overflow=hidden;rotatable=0;points=[[0,0.5],[1,0.5]];portConstraint=eastwest;whiteSpace=wrap;html=1;" vertex="1" parent="aOvOmwiqrQyPlh8_4ygN-44">
          <mxGeometry y="38" width="340" height="112" as="geometry" />
        </mxCell>
        <mxCell id="aOvOmwiqrQyPlh8_4ygN-47" value="&lt;b&gt;ArmaduraDeHierro&lt;/b&gt;" style="swimlane;fontStyle=0;align=center;verticalAlign=top;childLayout=stackLayout;horizontal=1;startSize=30;horizontalStack=0;resizeParent=1;resizeParentMax=0;resizeLast=0;collapsible=1;marginBottom=0;whiteSpace=wrap;html=1;" vertex="1" parent="1">
          <mxGeometry x="270" y="610" width="340" height="150" as="geometry" />
        </mxCell>
        <mxCell id="aOvOmwiqrQyPlh8_4ygN-48" value="" style="line;strokeWidth=1;fillColor=none;align=left;verticalAlign=middle;spacingTop=-1;spacingLeft=3;spacingRight=3;rotatable=0;labelPosition=right;points=[];portConstraint=eastwest;strokeColor=inherit;" vertex="1" parent="aOvOmwiqrQyPlh8_4ygN-47">
          <mxGeometry y="30" width="340" height="8" as="geometry" />
        </mxCell>
        <mxCell id="aOvOmwiqrQyPlh8_4ygN-49" value="&lt;div&gt;+ &amp;lt;&amp;lt;create&amp;gt;&amp;gt; createArmaduraDeHierro(): ArmaduraDeHierro&lt;/div&gt;&lt;div&gt;&lt;br&gt;&lt;/div&gt;&lt;div&gt;+ calcularDanioDeArma(espada: Espada): Integer&lt;/div&gt;&lt;div&gt;&lt;br&gt;&lt;/div&gt;&lt;div&gt;+ calcularDanioDeArma(arco: Arco): Integer&lt;/div&gt;&lt;div&gt;&lt;br&gt;&lt;/div&gt;&lt;div&gt;+ calcularDanioDeArma(baston: Baston): Integer&lt;/div&gt;" style="text;strokeColor=none;fillColor=none;align=left;verticalAlign=top;spacingLeft=4;spacingRight=4;overflow=hidden;rotatable=0;points=[[0,0.5],[1,0.5]];portConstraint=eastwest;whiteSpace=wrap;html=1;" vertex="1" parent="aOvOmwiqrQyPlh8_4ygN-47">
          <mxGeometry y="38" width="340" height="112" as="geometry" />
        </mxCell>
        <mxCell id="aOvOmwiqrQyPlh8_4ygN-50" value="ArmaduraDeCuero" style="swimlane;fontStyle=1;align=center;verticalAlign=top;childLayout=stackLayout;horizontal=1;startSize=30;horizontalStack=0;resizeParent=1;resizeParentMax=0;resizeLast=0;collapsible=1;marginBottom=0;whiteSpace=wrap;html=1;" vertex="1" parent="1">
          <mxGeometry x="650" y="610" width="340" height="150" as="geometry" />
        </mxCell>
        <mxCell id="aOvOmwiqrQyPlh8_4ygN-51" value="" style="line;strokeWidth=1;fillColor=none;align=left;verticalAlign=middle;spacingTop=-1;spacingLeft=3;spacingRight=3;rotatable=0;labelPosition=right;points=[];portConstraint=eastwest;strokeColor=inherit;" vertex="1" parent="aOvOmwiqrQyPlh8_4ygN-50">
          <mxGeometry y="30" width="340" height="8" as="geometry" />
        </mxCell>
        <mxCell id="aOvOmwiqrQyPlh8_4ygN-52" value="&lt;div&gt;+ &amp;lt;&amp;lt;create&amp;gt;&amp;gt; createArmaduraDeCuero(): ArmaduraDeCuero&lt;br&gt;&lt;/div&gt;&lt;div&gt;&lt;br&gt;&lt;/div&gt;&lt;div&gt;+ calcularDanioDeArma(espada: Espada): Integer&lt;/div&gt;&lt;div&gt;&lt;br&gt;&lt;/div&gt;&lt;div&gt;+ calcularDanioDeArma(arco: Arco): Integer&lt;/div&gt;&lt;div&gt;&lt;br&gt;&lt;/div&gt;&lt;div&gt;+ calcularDanioDeArma(baston: Baston): Integer&lt;/div&gt;" style="text;strokeColor=none;fillColor=none;align=left;verticalAlign=top;spacingLeft=4;spacingRight=4;overflow=hidden;rotatable=0;points=[[0,0.5],[1,0.5]];portConstraint=eastwest;whiteSpace=wrap;html=1;" vertex="1" parent="aOvOmwiqrQyPlh8_4ygN-50">
          <mxGeometry y="38" width="340" height="112" as="geometry" />
        </mxCell>
        <mxCell id="aOvOmwiqrQyPlh8_4ygN-53" value="" style="endArrow=block;dashed=1;endFill=0;endSize=12;html=1;rounded=0;exitX=0.5;exitY=0;exitDx=0;exitDy=0;entryX=0;entryY=1;entryDx=0;entryDy=0;" edge="1" parent="1" source="aOvOmwiqrQyPlh8_4ygN-44" target="aOvOmwiqrQyPlh8_4ygN-5">
          <mxGeometry width="160" relative="1" as="geometry">
            <mxPoint x="320" y="460" as="sourcePoint" />
            <mxPoint x="270" y="580" as="targetPoint" />
          </mxGeometry>
        </mxCell>
        <mxCell id="aOvOmwiqrQyPlh8_4ygN-54" value="" style="endArrow=block;dashed=1;endFill=0;endSize=12;html=1;rounded=0;exitX=0.5;exitY=0;exitDx=0;exitDy=0;entryX=1;entryY=1;entryDx=0;entryDy=0;" edge="1" parent="1" source="aOvOmwiqrQyPlh8_4ygN-50" target="aOvOmwiqrQyPlh8_4ygN-5">
          <mxGeometry width="160" relative="1" as="geometry">
            <mxPoint x="320" y="460" as="sourcePoint" />
            <mxPoint x="480" y="460" as="targetPoint" />
          </mxGeometry>
        </mxCell>
        <mxCell id="aOvOmwiqrQyPlh8_4ygN-55" value="" style="endArrow=block;dashed=1;endFill=0;endSize=12;html=1;rounded=0;exitX=0.5;exitY=0;exitDx=0;exitDy=0;entryX=0.5;entryY=1;entryDx=0;entryDy=0;" edge="1" parent="1" source="aOvOmwiqrQyPlh8_4ygN-47" target="aOvOmwiqrQyPlh8_4ygN-5">
          <mxGeometry width="160" relative="1" as="geometry">
            <mxPoint x="320" y="460" as="sourcePoint" />
            <mxPoint x="480" y="460" as="targetPoint" />
          </mxGeometry>
        </mxCell>
        <mxCell id="aOvOmwiqrQyPlh8_4ygN-56" value="Espada" style="swimlane;fontStyle=1;align=center;verticalAlign=top;childLayout=stackLayout;horizontal=1;startSize=26;horizontalStack=0;resizeParent=1;resizeParentMax=0;resizeLast=0;collapsible=1;marginBottom=0;whiteSpace=wrap;html=1;" vertex="1" parent="1">
          <mxGeometry x="-450" y="400" width="210" height="60" as="geometry" />
        </mxCell>
        <mxCell id="aOvOmwiqrQyPlh8_4ygN-58" value="" style="line;strokeWidth=1;fillColor=none;align=left;verticalAlign=middle;spacingTop=-1;spacingLeft=3;spacingRight=3;rotatable=0;labelPosition=right;points=[];portConstraint=eastwest;strokeColor=inherit;" vertex="1" parent="aOvOmwiqrQyPlh8_4ygN-56">
          <mxGeometry y="26" width="210" height="8" as="geometry" />
        </mxCell>
        <mxCell id="aOvOmwiqrQyPlh8_4ygN-59" value="&amp;lt;&amp;lt;create&amp;gt;&amp;gt; createEspada(): Espada" style="text;strokeColor=none;fillColor=none;align=left;verticalAlign=top;spacingLeft=4;spacingRight=4;overflow=hidden;rotatable=0;points=[[0,0.5],[1,0.5]];portConstraint=eastwest;whiteSpace=wrap;html=1;" vertex="1" parent="aOvOmwiqrQyPlh8_4ygN-56">
          <mxGeometry y="34" width="210" height="26" as="geometry" />
        </mxCell>
        <mxCell id="aOvOmwiqrQyPlh8_4ygN-60" value="Arco" style="swimlane;fontStyle=1;align=center;verticalAlign=top;childLayout=stackLayout;horizontal=1;startSize=26;horizontalStack=0;resizeParent=1;resizeParentMax=0;resizeLast=0;collapsible=1;marginBottom=0;whiteSpace=wrap;html=1;" vertex="1" parent="1">
          <mxGeometry x="-200" y="400" width="180" height="60" as="geometry" />
        </mxCell>
        <mxCell id="aOvOmwiqrQyPlh8_4ygN-61" value="" style="line;strokeWidth=1;fillColor=none;align=left;verticalAlign=middle;spacingTop=-1;spacingLeft=3;spacingRight=3;rotatable=0;labelPosition=right;points=[];portConstraint=eastwest;strokeColor=inherit;" vertex="1" parent="aOvOmwiqrQyPlh8_4ygN-60">
          <mxGeometry y="26" width="180" height="8" as="geometry" />
        </mxCell>
        <mxCell id="aOvOmwiqrQyPlh8_4ygN-62" value="&amp;lt;&amp;lt;create&amp;gt;&amp;gt; createArco(): Arco" style="text;strokeColor=none;fillColor=none;align=left;verticalAlign=top;spacingLeft=4;spacingRight=4;overflow=hidden;rotatable=0;points=[[0,0.5],[1,0.5]];portConstraint=eastwest;whiteSpace=wrap;html=1;" vertex="1" parent="aOvOmwiqrQyPlh8_4ygN-60">
          <mxGeometry y="34" width="180" height="26" as="geometry" />
        </mxCell>
        <mxCell id="aOvOmwiqrQyPlh8_4ygN-63" value="Baston" style="swimlane;fontStyle=1;align=center;verticalAlign=top;childLayout=stackLayout;horizontal=1;startSize=26;horizontalStack=0;resizeParent=1;resizeParentMax=0;resizeLast=0;collapsible=1;marginBottom=0;whiteSpace=wrap;html=1;" vertex="1" parent="1">
          <mxGeometry x="20" y="400" width="200" height="60" as="geometry" />
        </mxCell>
        <mxCell id="aOvOmwiqrQyPlh8_4ygN-64" value="" style="line;strokeWidth=1;fillColor=none;align=left;verticalAlign=middle;spacingTop=-1;spacingLeft=3;spacingRight=3;rotatable=0;labelPosition=right;points=[];portConstraint=eastwest;strokeColor=inherit;" vertex="1" parent="aOvOmwiqrQyPlh8_4ygN-63">
          <mxGeometry y="26" width="200" height="8" as="geometry" />
        </mxCell>
        <mxCell id="aOvOmwiqrQyPlh8_4ygN-65" value="&amp;lt;&amp;lt;create&amp;gt;&amp;gt; createBaston(): Baston" style="text;strokeColor=none;fillColor=none;align=left;verticalAlign=top;spacingLeft=4;spacingRight=4;overflow=hidden;rotatable=0;points=[[0,0.5],[1,0.5]];portConstraint=eastwest;whiteSpace=wrap;html=1;" vertex="1" parent="aOvOmwiqrQyPlh8_4ygN-63">
          <mxGeometry y="34" width="200" height="26" as="geometry" />
        </mxCell>
        <mxCell id="aOvOmwiqrQyPlh8_4ygN-66" value="" style="endArrow=block;endSize=16;endFill=0;html=1;rounded=0;exitX=0.5;exitY=0;exitDx=0;exitDy=0;entryX=0.25;entryY=1;entryDx=0;entryDy=0;" edge="1" parent="1" source="aOvOmwiqrQyPlh8_4ygN-56" target="aOvOmwiqrQyPlh8_4ygN-9">
          <mxGeometry width="160" relative="1" as="geometry">
            <mxPoint x="-130" y="310" as="sourcePoint" />
            <mxPoint x="30" y="310" as="targetPoint" />
          </mxGeometry>
        </mxCell>
        <mxCell id="aOvOmwiqrQyPlh8_4ygN-67" value="" style="endArrow=block;endSize=16;endFill=0;html=1;rounded=0;exitX=0.5;exitY=0;exitDx=0;exitDy=0;entryX=0.5;entryY=1;entryDx=0;entryDy=0;" edge="1" parent="1" source="aOvOmwiqrQyPlh8_4ygN-60" target="aOvOmwiqrQyPlh8_4ygN-9">
          <mxGeometry width="160" relative="1" as="geometry">
            <mxPoint x="-335" y="410" as="sourcePoint" />
            <mxPoint x="-180" y="256" as="targetPoint" />
            <mxPoint as="offset" />
          </mxGeometry>
        </mxCell>
        <mxCell id="aOvOmwiqrQyPlh8_4ygN-68" value="" style="endArrow=block;endSize=16;endFill=0;html=1;rounded=0;exitX=0.5;exitY=0;exitDx=0;exitDy=0;entryX=0.75;entryY=1;entryDx=0;entryDy=0;" edge="1" parent="1" source="aOvOmwiqrQyPlh8_4ygN-63" target="aOvOmwiqrQyPlh8_4ygN-9">
          <mxGeometry x="-0.0046" width="160" relative="1" as="geometry">
            <mxPoint x="-325" y="420" as="sourcePoint" />
            <mxPoint x="-170" y="266" as="targetPoint" />
            <mxPoint as="offset" />
          </mxGeometry>
        </mxCell>
        <mxCell id="aOvOmwiqrQyPlh8_4ygN-69" value="CombateCuerpoACuerpo" style="swimlane;fontStyle=1;align=center;verticalAlign=top;childLayout=stackLayout;horizontal=1;startSize=26;horizontalStack=0;resizeParent=1;resizeParentMax=0;resizeLast=0;collapsible=1;marginBottom=0;whiteSpace=wrap;html=1;" vertex="1" parent="1">
          <mxGeometry x="1210" y="240" width="160" height="60" as="geometry" />
        </mxCell>
        <mxCell id="aOvOmwiqrQyPlh8_4ygN-71" value="" style="line;strokeWidth=1;fillColor=none;align=left;verticalAlign=middle;spacingTop=-1;spacingLeft=3;spacingRight=3;rotatable=0;labelPosition=right;points=[];portConstraint=eastwest;strokeColor=inherit;" vertex="1" parent="aOvOmwiqrQyPlh8_4ygN-69">
          <mxGeometry y="26" width="160" height="8" as="geometry" />
        </mxCell>
        <mxCell id="aOvOmwiqrQyPlh8_4ygN-72" value="+ method(type): type" style="text;strokeColor=none;fillColor=none;align=left;verticalAlign=top;spacingLeft=4;spacingRight=4;overflow=hidden;rotatable=0;points=[[0,0.5],[1,0.5]];portConstraint=eastwest;whiteSpace=wrap;html=1;" vertex="1" parent="aOvOmwiqrQyPlh8_4ygN-69">
          <mxGeometry y="34" width="160" height="26" as="geometry" />
        </mxCell>
        <mxCell id="aOvOmwiqrQyPlh8_4ygN-73" value="CombateADistancia" style="swimlane;fontStyle=1;align=center;verticalAlign=top;childLayout=stackLayout;horizontal=1;startSize=26;horizontalStack=0;resizeParent=1;resizeParentMax=0;resizeLast=0;collapsible=1;marginBottom=0;whiteSpace=wrap;html=1;" vertex="1" parent="1">
          <mxGeometry x="1210" y="40" width="160" height="60" as="geometry" />
        </mxCell>
        <mxCell id="aOvOmwiqrQyPlh8_4ygN-75" value="" style="line;strokeWidth=1;fillColor=none;align=left;verticalAlign=middle;spacingTop=-1;spacingLeft=3;spacingRight=3;rotatable=0;labelPosition=right;points=[];portConstraint=eastwest;strokeColor=inherit;" vertex="1" parent="aOvOmwiqrQyPlh8_4ygN-73">
          <mxGeometry y="26" width="160" height="8" as="geometry" />
        </mxCell>
        <mxCell id="aOvOmwiqrQyPlh8_4ygN-76" value="+ method(type): type" style="text;strokeColor=none;fillColor=none;align=left;verticalAlign=top;spacingLeft=4;spacingRight=4;overflow=hidden;rotatable=0;points=[[0,0.5],[1,0.5]];portConstraint=eastwest;whiteSpace=wrap;html=1;" vertex="1" parent="aOvOmwiqrQyPlh8_4ygN-73">
          <mxGeometry y="34" width="160" height="26" as="geometry" />
        </mxCell>
        <mxCell id="aOvOmwiqrQyPlh8_4ygN-77" value="Magia" style="swimlane;fontStyle=1;align=center;verticalAlign=top;childLayout=stackLayout;horizontal=1;startSize=26;horizontalStack=0;resizeParent=1;resizeParentMax=0;resizeLast=0;collapsible=1;marginBottom=0;whiteSpace=wrap;html=1;" vertex="1" parent="1">
          <mxGeometry x="1210" y="340" width="160" height="60" as="geometry" />
        </mxCell>
        <mxCell id="aOvOmwiqrQyPlh8_4ygN-79" value="" style="line;strokeWidth=1;fillColor=none;align=left;verticalAlign=middle;spacingTop=-1;spacingLeft=3;spacingRight=3;rotatable=0;labelPosition=right;points=[];portConstraint=eastwest;strokeColor=inherit;" vertex="1" parent="aOvOmwiqrQyPlh8_4ygN-77">
          <mxGeometry y="26" width="160" height="8" as="geometry" />
        </mxCell>
        <mxCell id="aOvOmwiqrQyPlh8_4ygN-80" value="+ method(type): type" style="text;strokeColor=none;fillColor=none;align=left;verticalAlign=top;spacingLeft=4;spacingRight=4;overflow=hidden;rotatable=0;points=[[0,0.5],[1,0.5]];portConstraint=eastwest;whiteSpace=wrap;html=1;" vertex="1" parent="aOvOmwiqrQyPlh8_4ygN-77">
          <mxGeometry y="34" width="160" height="26" as="geometry" />
        </mxCell>
        <mxCell id="aOvOmwiqrQyPlh8_4ygN-81" value="Curacion" style="swimlane;fontStyle=1;align=center;verticalAlign=top;childLayout=stackLayout;horizontal=1;startSize=26;horizontalStack=0;resizeParent=1;resizeParentMax=0;resizeLast=0;collapsible=1;marginBottom=0;whiteSpace=wrap;html=1;" vertex="1" parent="1">
          <mxGeometry x="1210" y="140" width="160" height="60" as="geometry" />
        </mxCell>
        <mxCell id="aOvOmwiqrQyPlh8_4ygN-83" value="" style="line;strokeWidth=1;fillColor=none;align=left;verticalAlign=middle;spacingTop=-1;spacingLeft=3;spacingRight=3;rotatable=0;labelPosition=right;points=[];portConstraint=eastwest;strokeColor=inherit;" vertex="1" parent="aOvOmwiqrQyPlh8_4ygN-81">
          <mxGeometry y="26" width="160" height="8" as="geometry" />
        </mxCell>
        <mxCell id="aOvOmwiqrQyPlh8_4ygN-84" value="+ method(type): type" style="text;strokeColor=none;fillColor=none;align=left;verticalAlign=top;spacingLeft=4;spacingRight=4;overflow=hidden;rotatable=0;points=[[0,0.5],[1,0.5]];portConstraint=eastwest;whiteSpace=wrap;html=1;" vertex="1" parent="aOvOmwiqrQyPlh8_4ygN-81">
          <mxGeometry y="34" width="160" height="26" as="geometry" />
        </mxCell>
        <mxCell id="aOvOmwiqrQyPlh8_4ygN-85" value="" style="endArrow=block;dashed=1;endFill=0;endSize=12;html=1;rounded=0;exitX=0;exitY=1;exitDx=0;exitDy=0;entryX=1;entryY=0;entryDx=0;entryDy=0;" edge="1" parent="1" source="aOvOmwiqrQyPlh8_4ygN-73" target="aOvOmwiqrQyPlh8_4ygN-13">
          <mxGeometry width="160" relative="1" as="geometry">
            <mxPoint x="900" y="90" as="sourcePoint" />
            <mxPoint x="1060" y="90" as="targetPoint" />
          </mxGeometry>
        </mxCell>
        <mxCell id="aOvOmwiqrQyPlh8_4ygN-86" value="" style="endArrow=block;dashed=1;endFill=0;endSize=12;html=1;rounded=0;exitX=0;exitY=0.5;exitDx=0;exitDy=0;entryX=1;entryY=0.25;entryDx=0;entryDy=0;" edge="1" parent="1" target="aOvOmwiqrQyPlh8_4ygN-13">
          <mxGeometry width="160" relative="1" as="geometry">
            <mxPoint x="1210" y="179" as="sourcePoint" />
            <mxPoint x="1070" y="169" as="targetPoint" />
          </mxGeometry>
        </mxCell>
        <mxCell id="aOvOmwiqrQyPlh8_4ygN-87" value="" style="endArrow=block;dashed=1;endFill=0;endSize=12;html=1;rounded=0;exitX=0;exitY=0.25;exitDx=0;exitDy=0;entryX=1;entryY=0.5;entryDx=0;entryDy=0;" edge="1" parent="1" source="aOvOmwiqrQyPlh8_4ygN-69">
          <mxGeometry width="160" relative="1" as="geometry">
            <mxPoint x="1130" y="340" as="sourcePoint" />
            <mxPoint x="1060" y="212" as="targetPoint" />
          </mxGeometry>
        </mxCell>
        <mxCell id="aOvOmwiqrQyPlh8_4ygN-88" value="" style="endArrow=block;dashed=1;endFill=0;endSize=12;html=1;rounded=0;exitX=0;exitY=0;exitDx=0;exitDy=0;entryX=1;entryY=1;entryDx=0;entryDy=0;" edge="1" parent="1" source="aOvOmwiqrQyPlh8_4ygN-77" target="aOvOmwiqrQyPlh8_4ygN-13">
          <mxGeometry width="160" relative="1" as="geometry">
            <mxPoint x="1230" y="199" as="sourcePoint" />
            <mxPoint x="1080" y="204" as="targetPoint" />
          </mxGeometry>
        </mxCell>
        <mxCell id="aOvOmwiqrQyPlh8_4ygN-89" style="edgeStyle=orthogonalEdgeStyle;rounded=0;orthogonalLoop=1;jettySize=auto;html=1;exitX=1;exitY=0.5;exitDx=0;exitDy=0;entryX=0;entryY=0.5;entryDx=0;entryDy=0;" edge="1" parent="1" source="aOvOmwiqrQyPlh8_4ygN-2" target="aOvOmwiqrQyPlh8_4ygN-13">
          <mxGeometry relative="1" as="geometry" />
        </mxCell>
        <mxCell id="aOvOmwiqrQyPlh8_4ygN-90" value="habilidad" style="edgeLabel;html=1;align=center;verticalAlign=middle;resizable=0;points=[];" vertex="1" connectable="0" parent="aOvOmwiqrQyPlh8_4ygN-89">
          <mxGeometry y="-2" relative="1" as="geometry">
            <mxPoint as="offset" />
          </mxGeometry>
        </mxCell>
        <mxCell id="aOvOmwiqrQyPlh8_4ygN-91" value="&lt;div&gt;Preguntar: estoy haciendo algo mal con la habilidad? Porque queda vacía&lt;/div&gt;" style="rounded=0;whiteSpace=wrap;html=1;" vertex="1" parent="1">
          <mxGeometry x="1440" y="168" width="270" height="60" as="geometry" />
        </mxCell>
      </root>
    </mxGraphModel>
  </diagram>
</mxfile>
